<mxfile host="app.diagrams.net" modified="2024-06-19T02:06:00.764Z" agent="Mozilla/5.0 (Windows NT 10.0; Win64; x64) AppleWebKit/537.36 (KHTML, like Gecko) Chrome/126.0.0.0 Safari/537.36 Edg/126.0.0.0" etag="nscMQ3y8Lw9MwQmEkbCF" border="50" scale="3" compressed="false" locked="false" version="24.5.5" type="github">
  <diagram name="Blank" id="YmL12bMKpDGza6XwsDPr">
    <mxGraphModel dx="2226" dy="785" grid="0" gridSize="10" guides="1" tooltips="1" connect="1" arrows="1" fold="1" page="0" pageScale="1" pageWidth="827" pageHeight="1169" background="none" math="1" shadow="0">
      <root>
        <mxCell id="X5NqExCQtvZxIxQ7pmgY-0" />
        <mxCell id="1" parent="X5NqExCQtvZxIxQ7pmgY-0" />
        <mxCell id="IaBcJYwee6fV4r0CMXtV-13" style="rounded=0;orthogonalLoop=1;jettySize=auto;html=1;exitX=1;exitY=0.3333333333333333;exitDx=0;exitDy=0;exitPerimeter=0;entryX=0;entryY=0.5;entryDx=0;entryDy=0;" edge="1" parent="1" source="IaBcJYwee6fV4r0CMXtV-1" target="IaBcJYwee6fV4r0CMXtV-3">
          <mxGeometry relative="1" as="geometry">
            <mxPoint x="64" y="175" as="targetPoint" />
          </mxGeometry>
        </mxCell>
        <mxCell id="IaBcJYwee6fV4r0CMXtV-14" style="rounded=0;orthogonalLoop=1;jettySize=auto;html=1;exitX=1;exitY=1;exitDx=0;exitDy=0;exitPerimeter=0;entryX=0;entryY=0.5;entryDx=0;entryDy=0;" edge="1" parent="1" source="IaBcJYwee6fV4r0CMXtV-1" target="IaBcJYwee6fV4r0CMXtV-4">
          <mxGeometry relative="1" as="geometry" />
        </mxCell>
        <mxCell id="IaBcJYwee6fV4r0CMXtV-15" style="rounded=0;orthogonalLoop=1;jettySize=auto;html=1;exitX=0.5;exitY=0;exitDx=0;exitDy=0;exitPerimeter=0;entryX=0.931;entryY=0.736;entryDx=0;entryDy=0;entryPerimeter=0;" edge="1" parent="1" source="IaBcJYwee6fV4r0CMXtV-19" target="IaBcJYwee6fV4r0CMXtV-5">
          <mxGeometry relative="1" as="geometry" />
        </mxCell>
        <mxCell id="IaBcJYwee6fV4r0CMXtV-16" style="edgeStyle=none;rounded=0;orthogonalLoop=1;jettySize=auto;html=1;entryX=1;entryY=0.5;entryDx=0;entryDy=0;" edge="1" parent="1" source="IaBcJYwee6fV4r0CMXtV-19" target="IaBcJYwee6fV4r0CMXtV-6">
          <mxGeometry relative="1" as="geometry" />
        </mxCell>
        <mxCell id="IaBcJYwee6fV4r0CMXtV-20" value="" style="edgeStyle=none;rounded=0;orthogonalLoop=1;jettySize=auto;html=1;" edge="1" parent="1" source="IaBcJYwee6fV4r0CMXtV-1" target="IaBcJYwee6fV4r0CMXtV-19">
          <mxGeometry relative="1" as="geometry" />
        </mxCell>
        <mxCell id="IaBcJYwee6fV4r0CMXtV-1" value="管理员" style="shape=umlActor;verticalLabelPosition=bottom;verticalAlign=top;html=1;outlineConnect=0;" vertex="1" parent="1">
          <mxGeometry x="-11" y="319" width="30" height="60" as="geometry" />
        </mxCell>
        <mxCell id="IaBcJYwee6fV4r0CMXtV-27" style="edgeStyle=none;rounded=0;orthogonalLoop=1;jettySize=auto;html=1;exitX=1;exitY=0;exitDx=0;exitDy=0;entryX=0;entryY=0.5;entryDx=0;entryDy=0;" edge="1" parent="1" source="IaBcJYwee6fV4r0CMXtV-3" target="IaBcJYwee6fV4r0CMXtV-25">
          <mxGeometry relative="1" as="geometry" />
        </mxCell>
        <mxCell id="IaBcJYwee6fV4r0CMXtV-28" style="edgeStyle=none;rounded=0;orthogonalLoop=1;jettySize=auto;html=1;exitX=1;exitY=1;exitDx=0;exitDy=0;" edge="1" parent="1" source="IaBcJYwee6fV4r0CMXtV-3" target="IaBcJYwee6fV4r0CMXtV-26">
          <mxGeometry relative="1" as="geometry" />
        </mxCell>
        <mxCell id="IaBcJYwee6fV4r0CMXtV-34" style="edgeStyle=none;rounded=0;orthogonalLoop=1;jettySize=auto;html=1;exitX=1;exitY=0.5;exitDx=0;exitDy=0;entryX=0;entryY=0.5;entryDx=0;entryDy=0;" edge="1" parent="1" source="IaBcJYwee6fV4r0CMXtV-3" target="IaBcJYwee6fV4r0CMXtV-33">
          <mxGeometry relative="1" as="geometry" />
        </mxCell>
        <mxCell id="IaBcJYwee6fV4r0CMXtV-3" value="用户管理" style="ellipse;whiteSpace=wrap;html=1;" vertex="1" parent="1">
          <mxGeometry x="95" y="238" width="72" height="53" as="geometry" />
        </mxCell>
        <mxCell id="IaBcJYwee6fV4r0CMXtV-23" style="edgeStyle=none;rounded=0;orthogonalLoop=1;jettySize=auto;html=1;exitX=1;exitY=0;exitDx=0;exitDy=0;entryX=0;entryY=0.5;entryDx=0;entryDy=0;" edge="1" parent="1" source="IaBcJYwee6fV4r0CMXtV-4" target="IaBcJYwee6fV4r0CMXtV-10">
          <mxGeometry relative="1" as="geometry" />
        </mxCell>
        <mxCell id="IaBcJYwee6fV4r0CMXtV-24" style="edgeStyle=none;rounded=0;orthogonalLoop=1;jettySize=auto;html=1;exitX=1;exitY=1;exitDx=0;exitDy=0;entryX=0;entryY=0.5;entryDx=0;entryDy=0;" edge="1" parent="1" source="IaBcJYwee6fV4r0CMXtV-4" target="IaBcJYwee6fV4r0CMXtV-12">
          <mxGeometry relative="1" as="geometry" />
        </mxCell>
        <mxCell id="IaBcJYwee6fV4r0CMXtV-4" value="权限管理" style="ellipse;whiteSpace=wrap;html=1;" vertex="1" parent="1">
          <mxGeometry x="95" y="395" width="72" height="53" as="geometry" />
        </mxCell>
        <mxCell id="IaBcJYwee6fV4r0CMXtV-31" style="edgeStyle=none;rounded=0;orthogonalLoop=1;jettySize=auto;html=1;exitX=0;exitY=0;exitDx=0;exitDy=0;entryX=1;entryY=0.5;entryDx=0;entryDy=0;" edge="1" parent="1" source="IaBcJYwee6fV4r0CMXtV-5" target="IaBcJYwee6fV4r0CMXtV-29">
          <mxGeometry relative="1" as="geometry" />
        </mxCell>
        <mxCell id="IaBcJYwee6fV4r0CMXtV-32" style="edgeStyle=none;rounded=0;orthogonalLoop=1;jettySize=auto;html=1;exitX=0;exitY=0.5;exitDx=0;exitDy=0;entryX=1;entryY=0.5;entryDx=0;entryDy=0;" edge="1" parent="1" source="IaBcJYwee6fV4r0CMXtV-5" target="IaBcJYwee6fV4r0CMXtV-30">
          <mxGeometry relative="1" as="geometry" />
        </mxCell>
        <mxCell id="IaBcJYwee6fV4r0CMXtV-5" value="广告管理" style="ellipse;whiteSpace=wrap;html=1;" vertex="1" parent="1">
          <mxGeometry x="-262" y="246" width="72" height="53" as="geometry" />
        </mxCell>
        <mxCell id="IaBcJYwee6fV4r0CMXtV-21" style="edgeStyle=none;rounded=0;orthogonalLoop=1;jettySize=auto;html=1;exitX=0;exitY=0;exitDx=0;exitDy=0;" edge="1" parent="1" source="IaBcJYwee6fV4r0CMXtV-6" target="IaBcJYwee6fV4r0CMXtV-7">
          <mxGeometry relative="1" as="geometry" />
        </mxCell>
        <mxCell id="IaBcJYwee6fV4r0CMXtV-22" style="edgeStyle=none;rounded=0;orthogonalLoop=1;jettySize=auto;html=1;exitX=0;exitY=1;exitDx=0;exitDy=0;" edge="1" parent="1" source="IaBcJYwee6fV4r0CMXtV-6" target="IaBcJYwee6fV4r0CMXtV-9">
          <mxGeometry relative="1" as="geometry" />
        </mxCell>
        <mxCell id="IaBcJYwee6fV4r0CMXtV-6" value="策略制定" style="ellipse;whiteSpace=wrap;html=1;" vertex="1" parent="1">
          <mxGeometry x="-258" y="393" width="72" height="53" as="geometry" />
        </mxCell>
        <mxCell id="IaBcJYwee6fV4r0CMXtV-7" value="定时策略" style="ellipse;whiteSpace=wrap;html=1;" vertex="1" parent="1">
          <mxGeometry x="-405" y="354" width="72" height="53" as="geometry" />
        </mxCell>
        <mxCell id="IaBcJYwee6fV4r0CMXtV-9" value="自动化策略" style="ellipse;whiteSpace=wrap;html=1;" vertex="1" parent="1">
          <mxGeometry x="-405" y="446" width="72" height="53" as="geometry" />
        </mxCell>
        <mxCell id="IaBcJYwee6fV4r0CMXtV-10" value="菜单管理" style="ellipse;whiteSpace=wrap;html=1;" vertex="1" parent="1">
          <mxGeometry x="243" y="379" width="72" height="53" as="geometry" />
        </mxCell>
        <mxCell id="IaBcJYwee6fV4r0CMXtV-12" value="角色管理" style="ellipse;whiteSpace=wrap;html=1;" vertex="1" parent="1">
          <mxGeometry x="243" y="466" width="72" height="53" as="geometry" />
        </mxCell>
        <mxCell id="IaBcJYwee6fV4r0CMXtV-19" value="运营用户" style="shape=umlActor;verticalLabelPosition=bottom;verticalAlign=top;html=1;outlineConnect=0;" vertex="1" parent="1">
          <mxGeometry x="-124" y="317" width="30" height="60" as="geometry" />
        </mxCell>
        <mxCell id="IaBcJYwee6fV4r0CMXtV-25" value="用户角色" style="ellipse;whiteSpace=wrap;html=1;" vertex="1" parent="1">
          <mxGeometry x="237" y="108" width="72" height="53" as="geometry" />
        </mxCell>
        <mxCell id="IaBcJYwee6fV4r0CMXtV-26" value="用户部门" style="ellipse;whiteSpace=wrap;html=1;" vertex="1" parent="1">
          <mxGeometry x="235" y="289" width="72" height="53" as="geometry" />
        </mxCell>
        <mxCell id="IaBcJYwee6fV4r0CMXtV-29" value="广告看板" style="ellipse;whiteSpace=wrap;html=1;" vertex="1" parent="1">
          <mxGeometry x="-399" y="174" width="72" height="53" as="geometry" />
        </mxCell>
        <mxCell id="IaBcJYwee6fV4r0CMXtV-30" value="广告创建" style="ellipse;whiteSpace=wrap;html=1;" vertex="1" parent="1">
          <mxGeometry x="-402" y="264" width="72" height="53" as="geometry" />
        </mxCell>
        <mxCell id="IaBcJYwee6fV4r0CMXtV-33" value="数据权限" style="ellipse;whiteSpace=wrap;html=1;" vertex="1" parent="1">
          <mxGeometry x="240" y="202" width="72" height="53" as="geometry" />
        </mxCell>
        <mxCell id="IaBcJYwee6fV4r0CMXtV-37" style="edgeStyle=none;rounded=0;orthogonalLoop=1;jettySize=auto;html=1;exitX=1;exitY=0.5;exitDx=0;exitDy=0;exitPerimeter=0;entryX=0;entryY=0.5;entryDx=0;entryDy=0;" edge="1" parent="1" source="IaBcJYwee6fV4r0CMXtV-35" target="IaBcJYwee6fV4r0CMXtV-36">
          <mxGeometry relative="1" as="geometry" />
        </mxCell>
        <mxCell id="IaBcJYwee6fV4r0CMXtV-35" value="开始" style="strokeWidth=2;html=1;shape=mxgraph.flowchart.start_2;whiteSpace=wrap;" vertex="1" parent="1">
          <mxGeometry x="-405" y="706.5" width="46" height="46" as="geometry" />
        </mxCell>
        <mxCell id="IaBcJYwee6fV4r0CMXtV-39" style="edgeStyle=none;rounded=0;orthogonalLoop=1;jettySize=auto;html=1;exitX=1;exitY=0.5;exitDx=0;exitDy=0;entryX=0;entryY=0.5;entryDx=0;entryDy=0;" edge="1" parent="1" source="IaBcJYwee6fV4r0CMXtV-36" target="IaBcJYwee6fV4r0CMXtV-38">
          <mxGeometry relative="1" as="geometry" />
        </mxCell>
        <mxCell id="IaBcJYwee6fV4r0CMXtV-36" value="选择投广告的商品" style="rounded=1;whiteSpace=wrap;html=1;absoluteArcSize=1;arcSize=14;strokeWidth=2;" vertex="1" parent="1">
          <mxGeometry x="-307" y="690" width="113" height="79" as="geometry" />
        </mxCell>
        <mxCell id="IaBcJYwee6fV4r0CMXtV-41" style="edgeStyle=none;rounded=0;orthogonalLoop=1;jettySize=auto;html=1;exitX=1;exitY=0.5;exitDx=0;exitDy=0;" edge="1" parent="1" source="IaBcJYwee6fV4r0CMXtV-38" target="IaBcJYwee6fV4r0CMXtV-40">
          <mxGeometry relative="1" as="geometry" />
        </mxCell>
        <mxCell id="IaBcJYwee6fV4r0CMXtV-38" value="填写广告创建的基础信息" style="rounded=1;whiteSpace=wrap;html=1;absoluteArcSize=1;arcSize=14;strokeWidth=2;" vertex="1" parent="1">
          <mxGeometry x="-147" y="690" width="113" height="79" as="geometry" />
        </mxCell>
        <mxCell id="IaBcJYwee6fV4r0CMXtV-40" value="选择广告基础结构" style="rounded=1;whiteSpace=wrap;html=1;absoluteArcSize=1;arcSize=14;strokeWidth=2;" vertex="1" parent="1">
          <mxGeometry x="14" y="690" width="113" height="79" as="geometry" />
        </mxCell>
        <mxCell id="IaBcJYwee6fV4r0CMXtV-42" style="edgeStyle=none;rounded=0;orthogonalLoop=1;jettySize=auto;html=1;exitX=1;exitY=0.5;exitDx=0;exitDy=0;" edge="1" target="IaBcJYwee6fV4r0CMXtV-43" parent="1" source="IaBcJYwee6fV4r0CMXtV-40">
          <mxGeometry relative="1" as="geometry">
            <mxPoint x="144" y="731" as="sourcePoint" />
          </mxGeometry>
        </mxCell>
        <mxCell id="IaBcJYwee6fV4r0CMXtV-46" value="" style="edgeStyle=none;rounded=0;orthogonalLoop=1;jettySize=auto;html=1;" edge="1" parent="1" source="IaBcJYwee6fV4r0CMXtV-43" target="IaBcJYwee6fV4r0CMXtV-45">
          <mxGeometry relative="1" as="geometry" />
        </mxCell>
        <mxCell id="IaBcJYwee6fV4r0CMXtV-43" value="制定命名规则" style="rounded=1;whiteSpace=wrap;html=1;absoluteArcSize=1;arcSize=14;strokeWidth=2;" vertex="1" parent="1">
          <mxGeometry x="174" y="690" width="113" height="79" as="geometry" />
        </mxCell>
        <mxCell id="IaBcJYwee6fV4r0CMXtV-48" style="edgeStyle=none;rounded=0;orthogonalLoop=1;jettySize=auto;html=1;exitX=1;exitY=0.5;exitDx=0;exitDy=0;" edge="1" parent="1" source="IaBcJYwee6fV4r0CMXtV-45" target="IaBcJYwee6fV4r0CMXtV-47">
          <mxGeometry relative="1" as="geometry" />
        </mxCell>
        <mxCell id="IaBcJYwee6fV4r0CMXtV-45" value="调整创建信息" style="rounded=1;whiteSpace=wrap;html=1;absoluteArcSize=1;arcSize=14;strokeWidth=2;" vertex="1" parent="1">
          <mxGeometry x="334" y="690" width="113" height="79" as="geometry" />
        </mxCell>
        <mxCell id="IaBcJYwee6fV4r0CMXtV-47" value="结束" style="strokeWidth=2;html=1;shape=mxgraph.flowchart.start_2;whiteSpace=wrap;" vertex="1" parent="1">
          <mxGeometry x="512" y="706.5" width="46" height="46" as="geometry" />
        </mxCell>
      </root>
    </mxGraphModel>
  </diagram>
</mxfile>
